Coordinates
version=1
nRows=21
nColumns=22
inDegrees=yes

Units are S.I. units (second, meters, Newtons, ...)
If the header above contains a line with 'inDegrees', this indicates whether rotational values are in degrees (yes) or radians (no).

endheader
time	pelvis_tilt	pelvis_list	pelvis_rotation	pelvis_tx	pelvis_ty	pelvis_tz	hip_flexion_r	hip_adduction_r	hip_rotation_r	knee_angle_r	ankle_angle_r	subtalar_angle_r	hip_flexion_l	hip_adduction_l	hip_rotation_l	knee_angle_l	ankle_angle_l	subtalar_angle_l	lumbar_extension	lumbar_bending	lumbar_rotation
      4.46000000	     -1.61301456	    -10.04708426	    -88.90256872	      0.25358197	      0.94837209	      0.73307311	      4.63242274	      0.35850477	     -7.56085381	    -36.40754935	     14.93013650	      3.66590807	      2.15587598	     -0.56138504	     -7.35945041	    -26.42841179	     21.03996955	    -16.44787237	    -15.14884351	      3.06110496	     -9.59078070
      4.47000000	     -1.73079931	    -10.01787510	    -88.78265758	      0.25397499	      0.94849238	      0.73583960	      4.47695888	      0.53891759	     -7.72569985	    -34.95891931	     15.16652990	      3.36276783	      2.02725448	     -0.68032633	     -7.25959266	    -26.45858821	     21.24506148	    -16.39695443	    -15.17066062	      3.17089768	     -9.76106160
      4.48000000	     -1.82935065	     -9.99097411	    -88.67293784	      0.25428582	      0.94859485	      0.73846898	      4.31888505	      0.71866845	     -7.82670710	    -33.63529895	     15.31133721	      2.93460665	      1.89919571	     -0.78230791	     -7.16258144	    -26.47647960	     21.40097037	    -16.32754228	    -15.20517824	      3.25414414	     -9.88337972
      4.49000000	     -1.93061414	     -9.93154941	    -88.55088975	      0.25453754	      0.94859451	      0.74095001	      4.20226232	      0.90970654	     -7.92154101	    -32.45262798	     15.36830519	      2.69319380	      1.84476362	     -0.89704559	     -7.06228943	    -26.54580559	     21.56468217	    -16.27956571	    -15.20741708	      3.33813303	    -10.01012198
      4.50000000	     -1.99093192	     -9.89745986	    -88.44077128	      0.25468731	      0.94862481	      0.74330923	      4.05469223	      1.07964304	     -7.92949212	    -31.39573014	     15.28290787	      2.19241269	      1.74850505	     -0.96541397	     -6.94249801	    -26.57385256	     21.70434538	    -16.17666099	    -15.24774351	      3.36707853	    -10.13223952
      4.51000000	     -2.06477562	     -9.82026542	    -88.30537704	      0.25480543	      0.94854697	      0.74556936	      3.95185282	      1.25636888	     -7.99994229	    -30.47339260	     15.10860463	      1.93802874	      1.72994446	     -1.05640616	     -6.80765299	    -26.64098023	     21.83661414	    -16.11888060	    -15.23598753	      3.41485932	    -10.25813244
      4.52000000	     -2.09675574	     -9.76472182	    -88.17411569	      0.25482703	      0.94848347	      0.74773965	      3.81899266	      1.39768734	     -8.03604902	    -29.67899013	     14.88843060	      1.39590659	      1.67575264	     -1.10517095	     -6.67206413	    -26.67546409	     21.95647959	    -15.99916617	    -15.25381946	      3.40756876	    -10.39604478
      4.53000000	     -2.12618115	     -9.66639193	    -88.01930304	      0.25482362	      0.94833533	      0.74980875	      3.72765291	      1.52636579	     -8.11669479	    -29.01053634	     14.55816008	      1.19449758	      1.68287869	     -1.14725269	     -6.48256976	    -26.71742245	     22.05625751	    -15.94654838	    -15.22302099	      3.40013220	    -10.53626706
      4.54000000	     -2.14031493	     -9.60231670	    -87.85700122	      0.25475840	      0.94822035	      0.75186764	      3.57056990	      1.62654809	     -8.27565371	    -28.43318854	     14.30362395	      0.58588995	      1.63966933	     -1.19057935	     -6.35237776	    -26.73407034	     22.16791228	    -15.81366690	    -15.22249856	      3.37695698	    -10.70850706
      4.55000000	     -2.13799394	     -9.49943632	    -87.68678892	      0.25465498	      0.94804173	      0.75382462	      3.44724017	      1.70303941	     -8.43128951	    -27.96034823	     13.98115508	      0.38845684	      1.64059772	     -1.20737430	     -6.17039211	    -26.73937279	     22.27040514	    -15.74827199	    -15.18218760	      3.33405591	    -10.86603686
      4.56000000	     -2.13470821	     -9.41397315	    -87.49700934	      0.25452696	      0.94788923	      0.75575029	      3.26393195	      1.77071795	     -8.63895939	    -27.52606215	     13.76912408	      0.11133461	      1.61879770	     -1.23317741	     -6.00102540	    -26.72990327	     22.37699478	    -15.65253235	    -15.15629629	      3.29660124	    -11.05409693
      4.57000000	     -2.12419959	     -9.32905571	    -87.31194314	      0.25434013	      0.94775536	      0.75763946	      3.04700643	      1.82911171	     -8.84356881	    -27.11878513	     13.66369441	     -0.16439879	      1.58129349	     -1.25690759	     -5.85406701	    -26.68887419	     22.47146268	    -15.53968267	    -15.12774598	      3.24952003	    -11.23538650
      4.58000000	     -2.11646482	     -9.24597325	    -87.13051754	      0.25410226	      0.94765053	      0.75948894	      2.79361858	      1.88956399	     -9.04569821	    -26.70893113	     13.64512928	     -0.39635014	      1.53363049	     -1.29109271	     -5.73097827	    -26.62828451	     22.55657140	    -15.41598623	    -15.09660393	      3.20503100	    -11.40021927
      4.59000000	     -2.11917033	     -9.16350707	    -86.95656278	      0.25382148	      0.94759189	      0.76128485	      2.50956682	      1.96075177	     -9.24544949	    -26.27420113	     13.67716470	     -0.57494942	      1.47614432	     -1.34141571	     -5.62933107	    -26.54430054	     22.63328294	    -15.28267148	    -15.06486209	      3.17350699	    -11.54878632
      4.60000000	     -2.13721692	     -9.07958299	    -86.79007644	      0.25350770	      0.94758663	      0.76301215	      2.20308276	      2.04919493	     -9.43745012	    -25.80220515	     13.73173822	     -0.70008611	      1.41392363	     -1.41273628	     -5.54748756	    -26.43832665	     22.70138687	    -15.14378714	    -15.03214045	      3.16448898	    -11.67705556
      4.61000000	     -2.16801198	     -9.02908713	    -86.64636273	      0.25314430	      0.94770609	      0.76471001	      1.84713148	      2.14605056	     -9.65899390	    -25.30364150	     13.74458895	     -0.84556122	      1.28884137	     -1.50598340	     -5.51270677	    -26.28028484	     22.75097508	    -14.91687437	    -15.03170304	      3.16943699	    -11.77335536
      4.62000000	     -2.23090932	     -8.93350519	    -86.51514329	      0.25273502	      0.94781258	      0.76627211	      1.53974829	      2.29123478	     -9.79361973	    -24.77082612	     13.79930384	     -0.87632018	      1.23707797	     -1.63020807	     -5.45914995	    -26.15016328	     22.78779407	    -14.78517870	    -14.98652893	      3.21184123	    -11.84404000
      4.63000000	     -2.29565876	     -8.89893674	    -86.42965413	      0.25226359	      0.94811481	      0.76781614	      1.16931621	      2.43221271	     -9.93655905	    -24.22729646	     13.75408557	     -0.90295739	      1.06470589	     -1.76541310	     -5.48288438	    -25.92072792	     22.78845256	    -14.47668268	    -15.00694693	      3.25676623	    -11.86519331
      4.64000000	     -2.39213656	     -8.82831300	    -86.36422315	      0.25175985	      0.94841180	      0.76925422	      0.85838658	      2.60373331	    -10.06466372	    -23.68807830	     13.68670215	     -0.86871322	      0.94884127	     -1.93368599	     -5.51874787	    -25.71166789	     22.80975074	    -14.30069697	    -14.98629775	      3.33683777	    -11.86415852
      4.65000000	     -2.48440131	     -8.77286842	    -86.34613751	      0.25122460	      0.94881241	      0.77062145	      0.54335680	      2.76943659	    -10.13181205	    -23.14755968	     13.58642719	     -0.79483968	      0.78546868	     -2.09511173	     -5.60590036	    -25.44368114	     22.78314478	    -14.09667518	    -14.98745805	      3.41480659	    -11.80906471
      4.66000000	     -2.56422347	     -8.72524985	    -86.37665699	      0.25066316	      0.94928568	      0.77192456	      0.23604139	      2.91501450	    -10.15351840	    -22.61758351	     13.46089544	     -0.67982796	      0.58432936	     -2.23884655	     -5.74525598	    -25.12349313	     22.72074384	    -13.87276770	    -14.99961069	      3.47927591	    -11.70234525
